<svg width="157" height="40" fill="none" xmlns="http://www.w3.org/2000/svg"><path d="M53.348 4.368h-7.092v9.072c-1.476-1.728-3.096-2.484-5.292-2.484-4.752 0-7.848 3.78-7.848 9.612 0 6.012 3.24 9.9 8.244 9.9 2.268 0 3.852-.756 5.184-2.484V30h6.804V4.368zm-9.972 12.024c2.016 0 3.132 1.512 3.132 4.248 0 2.7-1.116 4.176-3.132 4.176-2.052 0-3.096-1.404-3.096-4.14 0-2.808 1.08-4.284 3.096-4.284zm33.208 8.028h-6.66c-.72 1.116-1.584 1.548-2.988 1.548-2.196 0-3.528-1.332-3.636-3.708h13.68v-.54c0-6.552-3.996-10.764-10.26-10.764-5.976 0-10.26 4.176-10.26 9.972 0 6.192 4.716 9.612 10.512 9.612 4.032 0 8.46-1.944 9.612-6.12zm-6.552-5.724h-6.696c.36-2.124 1.512-3.168 3.42-3.168 2.088 0 3.096 1.26 3.276 3.168zm27.175-1.836c-.395-4.86-4.427-5.976-8.82-5.976-5.868 0-9.035 2.052-9.035 5.868 0 4.572 4.283 5.22 7.775 5.976 2.556.576 3.636.648 3.636 1.8 0 .9-.828 1.476-2.232 1.476-1.836 0-2.663-.648-2.844-2.196h-6.731c.431 5.184 4.644 6.66 9.431 6.66 5.868 0 9.36-2.412 9.36-6.516 0-4.356-3.816-5.292-7.344-5.94-.864-.144-4.104-.324-4.104-1.764 0-.756.684-1.116 1.944-1.116 1.657 0 2.269.396 2.52 1.728h6.444zm10.7-12.492h-7.128v4.968h7.128V4.368zm0 7.056h-7.128V30h7.128V11.424zm23.02 0h-6.876v2.232c-1.26-1.908-2.7-2.772-5.184-2.772-4.824 0-7.92 3.492-7.92 8.964 0 5.508 2.952 8.82 7.848 8.82 2.232 0 3.888-.684 5.256-2.34v2.124c0 1.872-.288 3.348-2.772 3.348-1.584 0-2.268-.432-2.628-1.656h-7.092c.648 5.04 4.968 6.12 9.504 6.12 6.192 0 9.864-2.16 9.864-8.892V11.424zm-9.936 4.752c2.052 0 3.204 1.368 3.204 3.744 0 2.412-1.116 3.78-3.168 3.78-2.016 0-3.168-1.368-3.168-3.78 0-2.376 1.116-3.744 3.132-3.744zm20.552-4.752h-6.84V30h7.128V19.776c0-1.764.72-3.132 2.736-3.132 1.656 0 2.412.936 2.412 2.952V30h7.164V18.264c0-4.032-1.692-7.344-6.696-7.344-2.52 0-4.356.9-5.904 2.808v-2.304z" fill="#fff"/><path fill-rule="evenodd" clip-rule="evenodd" d="M3 6H0v24h9V20h4v10h4V20h4v10h3V6H7v10H3V6z" fill="#DA353B"/></svg>