<svg width="157" height="40" viewBox="0 0 157 40" fill="none" xmlns="http://www.w3.org/2000/svg">
<path d="M53.348 4.368H46.256V13.44C44.78 11.712 43.16 10.956 40.964 10.956C36.212 10.956 33.116 14.736 33.116 20.568C33.116 26.58 36.356 30.468 41.36 30.468C43.628 30.468 45.212 29.712 46.544 27.984V30H53.348V4.368ZM43.376 16.392C45.392 16.392 46.508 17.904 46.508 20.64C46.508 23.34 45.392 24.816 43.376 24.816C41.324 24.816 40.28 23.412 40.28 20.676C40.28 17.868 41.36 16.392 43.376 16.392ZM76.5838 24.42H69.9238C69.2038 25.536 68.3398 25.968 66.9358 25.968C64.7398 25.968 63.4078 24.636 63.2998 22.26H76.9798V21.72C76.9798 15.168 72.9838 10.956 66.7198 10.956C60.7438 10.956 56.4598 15.132 56.4598 20.928C56.4598 27.12 61.1758 30.54 66.9718 30.54C71.0038 30.54 75.4318 28.596 76.5838 24.42ZM70.0318 18.696H63.3358C63.6958 16.572 64.8477 15.528 66.7558 15.528C68.8438 15.528 69.8518 16.788 70.0318 18.696ZM97.2075 16.86C96.8115 12 92.7795 10.884 88.3875 10.884C82.5195 10.884 79.3515 12.936 79.3515 16.752C79.3515 21.324 83.6355 21.972 87.1275 22.728C89.6835 23.304 90.7635 23.376 90.7635 24.528C90.7635 25.428 89.9355 26.004 88.5315 26.004C86.6955 26.004 85.8675 25.356 85.6875 23.808H78.9555C79.3875 28.992 83.5995 30.468 88.3875 30.468C94.2555 30.468 97.7475 28.056 97.7475 23.952C97.7475 19.596 93.9315 18.66 90.4035 18.012C89.5395 17.868 86.2995 17.688 86.2995 16.248C86.2995 15.492 86.9835 15.132 88.2435 15.132C89.8995 15.132 90.5115 15.528 90.7635 16.86H97.2075ZM107.907 4.368H100.779V9.336H107.907V4.368ZM107.907 11.424H100.779V30H107.907V11.424ZM130.927 11.424H124.051V13.656C122.791 11.748 121.351 10.884 118.867 10.884C114.043 10.884 110.947 14.376 110.947 19.848C110.947 25.356 113.899 28.668 118.795 28.668C121.027 28.668 122.683 27.984 124.051 26.328V28.452C124.051 30.324 123.763 31.8 121.279 31.8C119.695 31.8 119.011 31.368 118.651 30.144H111.559C112.207 35.184 116.527 36.264 121.063 36.264C127.255 36.264 130.927 34.104 130.927 27.372V11.424ZM120.991 16.176C123.043 16.176 124.195 17.544 124.195 19.92C124.195 22.332 123.079 23.7 121.027 23.7C119.011 23.7 117.859 22.332 117.859 19.92C117.859 17.544 118.975 16.176 120.991 16.176ZM141.543 11.424H134.703V30H141.831V19.776C141.831 18.012 142.551 16.644 144.567 16.644C146.223 16.644 146.979 17.58 146.979 19.596V30H154.143V18.264C154.143 14.232 152.451 10.92 147.447 10.92C144.927 10.92 143.091 11.82 141.543 13.728V11.424Z" fill="white"/>
<path fill-rule="evenodd" clip-rule="evenodd" d="M3 6H0V30H9V20H13V30H17V20H21V30H24V6H7V16H3V6Z" fill="#DA353B"/>
</svg>
